<svg width="473" height="1012" viewBox="0 0 473 1012" fill="none" xmlns="http://www.w3.org/2000/svg">
<path d="M2.03004 8.47998C0.697833 10.9347 0.00972993 13.6871 0.030036 16.48L0.030036 771.81C0.0242769 775.225 1.0796 778.558 3.05018 781.347C5.02075 784.136 7.80924 786.244 11.03 787.38C17.4363 789.602 23.0205 793.71 27.0487 799.164C31.077 804.618 33.3608 811.164 33.6 817.94C33.6 818.33 33.6 818.74 33.6 819.15C33.6012 826.14 31.4258 832.957 27.3757 838.653C23.3257 844.35 17.6022 848.645 11 850.94C7.78162 852.073 4.99455 854.178 3.02405 856.964C1.05356 859.749 -0.00307514 863.078 6.72245e-06 866.49L6.72245e-06 994.97C-0.00130792 997.132 0.423524 999.273 1.25025 1001.27C2.07698 1003.27 3.28941 1005.08 4.81812 1006.61C6.34684 1008.14 8.16182 1009.35 10.1594 1010.18C12.157 1011.01 14.298 1011.43 16.46 1011.43H456.22C458.382 1011.43 460.523 1011.01 462.521 1010.18C464.518 1009.35 466.333 1008.14 467.862 1006.61C469.391 1005.08 470.603 1003.27 471.43 1001.27C472.256 999.273 472.681 997.132 472.68 994.97V866.49C472.686 863.077 471.63 859.747 469.66 856.961C467.689 854.175 464.9 852.071 461.68 850.94C455.078 848.645 449.354 844.35 445.304 838.653C441.254 832.957 439.079 826.14 439.08 819.15C439.08 818.74 439.08 818.33 439.08 817.94C439.319 811.164 441.603 804.618 445.631 799.164C449.659 793.71 455.244 789.602 461.65 787.38C464.872 786.246 467.661 784.138 469.632 781.348C471.602 778.559 472.657 775.225 472.65 771.81L472.65 16.46C472.651 14.298 472.226 12.157 471.4 10.1594C470.573 8.1618 469.361 6.3468 467.832 4.81812C466.303 3.28943 464.488 2.07697 462.49 1.25024C460.493 0.423523 458.352 -0.00134277 456.19 0H16.4399C13.5006 0.00280762 10.6154 0.790222 8.08216 2.28101C5.54893 3.77179 3.45964 5.91174 2.03004 8.47998ZM417.71 816.36C418.236 816.355 418.752 816.501 419.197 816.781C419.642 817.061 419.997 817.463 420.22 817.94C420.427 818.309 420.53 818.727 420.52 819.15C420.521 819.519 420.449 819.885 420.309 820.227C420.168 820.568 419.961 820.879 419.7 821.14C419.439 821.401 419.128 821.608 418.787 821.749C418.445 821.89 418.079 821.961 417.71 821.96H385.15C384.405 821.96 383.69 821.664 383.163 821.137C382.636 820.61 382.34 819.895 382.34 819.15C382.335 818.73 382.431 818.315 382.62 817.94C382.754 817.654 382.937 817.394 383.16 817.17C383.694 816.646 384.413 816.355 385.16 816.36H417.71ZM361.94 816.36C362.466 816.355 362.982 816.501 363.427 816.781C363.872 817.061 364.227 817.463 364.45 817.94C364.652 818.311 364.755 818.728 364.75 819.15C364.754 819.52 364.684 819.887 364.544 820.23C364.405 820.573 364.198 820.884 363.936 821.146C363.674 821.408 363.363 821.614 363.02 821.754C362.677 821.894 362.31 821.964 361.94 821.96H329.35C328.981 821.961 328.615 821.89 328.273 821.749C327.932 821.608 327.621 821.401 327.36 821.14C327.099 820.879 326.892 820.568 326.751 820.227C326.61 819.885 326.539 819.519 326.54 819.15C326.535 818.73 326.631 818.315 326.82 817.94C326.951 817.655 327.13 817.394 327.35 817.17C327.885 816.648 328.603 816.357 329.35 816.36H361.94ZM306.17 816.36C306.696 816.356 307.211 816.503 307.656 816.783C308.101 817.063 308.456 817.464 308.68 817.94C308.882 818.311 308.985 818.728 308.98 819.15C308.981 819.522 308.907 819.891 308.762 820.235C308.618 820.578 308.406 820.89 308.14 821.15C307.878 821.412 307.566 821.619 307.222 821.759C306.879 821.898 306.511 821.966 306.14 821.96H273.58C273.211 821.961 272.845 821.89 272.503 821.749C272.162 821.608 271.851 821.401 271.59 821.14C271.329 820.879 271.122 820.568 270.981 820.227C270.84 819.885 270.769 819.519 270.77 819.15C270.765 818.73 270.861 818.315 271.05 817.94C271.177 817.652 271.357 817.391 271.58 817.17C272.115 816.648 272.833 816.357 273.58 816.36H306.17ZM250.39 816.36C250.917 816.354 251.435 816.5 251.882 816.78C252.329 817.06 252.686 817.463 252.91 817.94C253.109 818.312 253.209 818.728 253.2 819.15C253.201 819.519 253.13 819.885 252.989 820.227C252.848 820.568 252.641 820.879 252.38 821.14C252.119 821.401 251.808 821.608 251.467 821.749C251.125 821.89 250.759 821.961 250.39 821.96H217.82C217.451 821.96 217.086 821.887 216.746 821.746C216.406 821.605 216.097 821.397 215.837 821.136C215.576 820.875 215.37 820.565 215.23 820.224C215.09 819.884 215.019 819.518 215.02 819.15C215.019 818.729 215.118 818.314 215.31 817.94C215.437 817.652 215.617 817.391 215.84 817.17C216.103 816.909 216.415 816.704 216.759 816.565C217.102 816.426 217.47 816.356 217.84 816.36H250.39ZM194.62 816.36C195.146 816.353 195.663 816.499 196.108 816.779C196.554 817.06 196.908 817.463 197.13 817.94C197.337 818.309 197.44 818.727 197.43 819.15C197.432 819.897 197.142 820.615 196.62 821.15C196.083 821.668 195.366 821.958 194.62 821.96H162.06C161.315 821.96 160.6 821.664 160.073 821.137C159.546 820.61 159.25 819.895 159.25 819.15C159.251 818.402 159.546 817.684 160.07 817.15C160.605 816.628 161.323 816.337 162.07 816.34L194.62 816.36ZM138.85 816.36C139.376 816.355 139.892 816.501 140.337 816.781C140.782 817.061 141.137 817.463 141.36 817.94C141.567 818.309 141.67 818.727 141.66 819.15C141.661 819.519 141.589 819.885 141.449 820.227C141.308 820.568 141.101 820.879 140.84 821.14C140.579 821.401 140.268 821.608 139.927 821.749C139.585 821.89 139.219 821.961 138.85 821.96H106.29C105.545 821.96 104.83 821.664 104.303 821.137C103.776 820.61 103.48 819.895 103.48 819.15C103.475 818.73 103.571 818.315 103.76 817.94C103.894 817.654 104.077 817.394 104.3 817.17C104.833 816.646 105.552 816.355 106.3 816.36H138.85ZM83.08 816.36C83.6059 816.355 84.1222 816.501 84.5673 816.781C85.0123 817.061 85.3673 817.463 85.59 817.94C85.7918 818.311 85.8951 818.728 85.89 819.15C85.894 819.52 85.824 819.887 85.6842 820.23C85.5444 820.573 85.3377 820.884 85.0759 821.146C84.8142 821.408 84.5028 821.614 84.16 821.754C83.8173 821.894 83.4501 821.964 83.08 821.96H50.52C50.1506 821.961 49.7846 821.89 49.4431 821.749C49.1016 821.608 48.7912 821.401 48.53 821.14C48.2688 820.879 48.0619 820.568 47.9212 820.227C47.7804 819.885 47.7086 819.519 47.71 819.15C47.7054 818.73 47.8014 818.315 47.99 817.94C48.1207 817.655 48.3001 817.394 48.52 817.17C49.0536 816.646 49.7725 816.355 50.52 816.36H83.08Z" fill="url(#paint0_linear_102_123)"/>
<path d="M76.6501 856V963.6H80.1801V856H76.6501Z" fill="black"/>
<path d="M84.04 856V963.6H85.87V856H84.04Z" fill="black"/>
<path d="M90.1899 856V950.7H95.2699V856H90.1899Z" fill="black"/>
<path d="M99.6001 856V950.7H101.43V856H99.6001Z" fill="black"/>
<path d="M106.3 856V950.7H110.3V856H106.3Z" fill="black"/>
<path d="M113.34 856V950.7H115.17V856H113.34Z" fill="black"/>
<path d="M117.48 856V950.7H119.31V856H117.48Z" fill="black"/>
<path d="M121.69 856V950.7H126.04V856H121.69Z" fill="black"/>
<path d="M130.73 856V950.7H132.56V856H130.73Z" fill="black"/>
<path d="M138.51 856V950.7H140.34V856H138.51Z" fill="black"/>
<path d="M137.31 856V950.7H137.95V856H137.31Z" fill="black"/>
<path d="M150.78 856V950.7H151.42V856H150.78Z" fill="black"/>
<path d="M182.78 856V950.7H183.42V856H182.78Z" fill="black"/>
<path d="M205.82 856V950.7H206.46V856H205.82Z" fill="black"/>
<path d="M321.65 856V950.7H322.29V856H321.65Z" fill="black"/>
<path d="M311.56 856V950.7H312.2V856H311.56Z" fill="black"/>
<path d="M359.47 856V950.7H360.11V856H359.47Z" fill="black"/>
<path d="M383.42 856V950.7H384.06V856H383.42Z" fill="black"/>
<path d="M289.38 856V950.7H290.02V856H289.38Z" fill="black"/>
<path d="M96.74 856V950.7H97.38V856H96.74Z" fill="black"/>
<path d="M144.57 856V950.7H149.86V856H144.57Z" fill="black"/>
<path d="M154.08 856V950.7H155.91V856H154.08Z" fill="black"/>
<path d="M211.54 856V950.7H213.37V856H211.54Z" fill="black"/>
<path d="M157.82 856V950.7H159.65V856H157.82Z" fill="black"/>
<path d="M161.86 856V950.7H163.69V856H161.86Z" fill="black"/>
<path d="M169.64 856V950.7H171.47V856H169.64Z" fill="black"/>
<path d="M175.37 856V950.7H181.31V856H175.37Z" fill="black"/>
<path d="M185.21 856V950.7H187.04V856H185.21Z" fill="black"/>
<path d="M192.99 856V950.7H194.82V856H192.99Z" fill="black"/>
<path d="M198.71 856V950.7H204.66V856H198.71Z" fill="black"/>
<path d="M208.56 856V950.7H210.39V856H208.56Z" fill="black"/>
<path d="M218.35 856V950.7H220.18V856H218.35Z" fill="black"/>
<path d="M222.5 856V950.7H227.57V856H222.5Z" fill="black"/>
<path d="M231.9 856V963.87H233.73V856H231.9Z" fill="black"/>
<path d="M239.23 856V963.87H241.06V856H239.23Z" fill="black"/>
<path d="M247.47 856V950.7H249.3V856H247.47Z" fill="black"/>
<path d="M250.49 856V950.7H252.32V856H250.49Z" fill="black"/>
<path d="M255.32 856V950.7H258.56V856H255.32Z" fill="black"/>
<path d="M263.03 856V950.7H264.86V856H263.03Z" fill="black"/>
<path d="M269.12 856V950.7H274.34V856H269.12Z" fill="black"/>
<path d="M278.6 856V950.7H280.43V856H278.6Z" fill="black"/>
<path d="M286.38 856V950.7H288.21V856H286.38Z" fill="black"/>
<path d="M292.83 856V950.7H297.32V856H292.83Z" fill="black"/>
<path d="M301.94 856V950.7H303.77V856H301.94Z" fill="black"/>
<path d="M307.71 856V950.7H309.54V856H307.71Z" fill="black"/>
<path d="M317.51 856V950.7H319.34V856H317.51Z" fill="black"/>
<path d="M328.43 856V950.7H332.06V856H328.43Z" fill="black"/>
<path d="M333.07 856V950.7H334.9V856H333.07Z" fill="black"/>
<path d="M342.87 856V950.7H344.7V856H342.87Z" fill="black"/>
<path d="M347.72 856V950.7H351.38V856H347.72Z" fill="black"/>
<path d="M356.42 856V950.7H358.25V856H356.42Z" fill="black"/>
<path d="M364.2 856V950.7H366.03V856H364.2Z" fill="black"/>
<path d="M371.07 856V950.7H374.73V856H371.07Z" fill="black"/>
<path d="M379.77 856V950.7H381.6V856H379.77Z" fill="black"/>
<path d="M387.55 856V950.7H392.47V856H387.55Z" fill="black"/>
<path d="M395.33 856V963.87H397.16V856H395.33Z" fill="black"/>
<path d="M403.11 856V963.87H404.94V856H403.11Z" fill="black"/>
<path d="M67 963.87V963.11L68 962.11C70.35 959.88 71.41 958.69 71.42 957.31C71.4456 957.066 71.416 956.819 71.3333 956.587C71.2506 956.356 71.1169 956.146 70.9422 955.973C70.7674 955.8 70.5561 955.669 70.3238 955.589C70.0915 955.509 69.8441 955.482 69.6 955.51C68.8626 955.528 68.1548 955.804 67.6 956.29L67.21 955.42C67.9348 954.81 68.8526 954.477 69.8 954.48C70.1658 954.447 70.5344 954.493 70.8813 954.613C71.2283 954.734 71.5456 954.926 71.8123 955.179C72.079 955.431 72.2889 955.738 72.4282 956.078C72.5674 956.417 72.6328 956.783 72.62 957.15C72.62 958.85 71.39 960.22 69.45 962.08L68.72 962.76H72.84V963.76L67 963.87Z" fill="black"/>
<path d="M117.62 961.54C117.627 960.991 117.807 960.458 118.134 960.017C118.46 959.575 118.917 959.248 119.44 959.08C119.02 958.92 118.657 958.639 118.397 958.272C118.137 957.905 117.992 957.469 117.98 957.02C117.995 956.669 118.081 956.324 118.234 956.008C118.387 955.691 118.603 955.409 118.869 955.18C119.135 954.95 119.446 954.777 119.781 954.673C120.117 954.568 120.471 954.533 120.82 954.57C121.147 954.528 121.478 954.555 121.794 954.648C122.109 954.741 122.402 954.899 122.653 955.112C122.904 955.324 123.108 955.587 123.252 955.883C123.397 956.179 123.478 956.501 123.49 956.83C123.484 957.299 123.336 957.755 123.067 958.138C122.798 958.522 122.419 958.815 121.98 958.98C122.499 959.135 122.955 959.451 123.282 959.883C123.61 960.314 123.791 960.839 123.8 961.38C123.78 961.764 123.683 962.14 123.513 962.484C123.344 962.829 123.106 963.136 122.814 963.386C122.522 963.635 122.182 963.823 121.815 963.937C121.449 964.052 121.062 964.09 120.68 964.05C118.8 964.03 117.62 962.88 117.62 961.54ZM122.56 961.48C122.56 960.37 121.79 959.83 120.56 959.48C120.111 959.56 119.702 959.79 119.402 960.134C119.102 960.478 118.928 960.914 118.91 961.37C118.902 961.61 118.945 961.848 119.036 962.07C119.127 962.292 119.264 962.493 119.438 962.658C119.611 962.823 119.818 962.95 120.044 963.029C120.271 963.109 120.511 963.14 120.75 963.12C120.979 963.141 121.209 963.114 121.427 963.041C121.644 962.968 121.845 962.851 122.015 962.697C122.185 962.543 122.321 962.355 122.415 962.146C122.509 961.936 122.558 961.71 122.56 961.48ZM119.14 956.89C119.14 957.81 119.84 958.3 120.9 958.59C121.281 958.5 121.623 958.288 121.874 957.987C122.124 957.686 122.27 957.311 122.29 956.92C122.303 956.716 122.271 956.511 122.196 956.32C122.122 956.129 122.007 955.956 121.86 955.813C121.713 955.671 121.537 955.562 121.343 955.494C121.15 955.426 120.944 955.401 120.74 955.42C120.536 955.402 120.331 955.427 120.138 955.492C119.944 955.558 119.766 955.664 119.616 955.802C119.465 955.94 119.345 956.108 119.263 956.296C119.181 956.483 119.139 956.686 119.14 956.89Z" fill="black"/>
<path d="M132.9 962.99C133.233 963.022 133.567 963.022 133.9 962.99C134.618 962.904 135.29 962.592 135.82 962.1C136.5 961.455 136.932 960.591 137.04 959.66H136.99C136.73 959.981 136.401 960.238 136.026 960.411C135.652 960.584 135.242 960.67 134.83 960.66C134.463 960.668 134.099 960.599 133.761 960.459C133.422 960.32 133.116 960.111 132.861 959.847C132.607 959.583 132.409 959.27 132.282 958.926C132.154 958.583 132.099 958.216 132.12 957.85C132.104 957.428 132.173 957.007 132.323 956.613C132.472 956.218 132.7 955.857 132.992 955.552C133.284 955.247 133.634 955.004 134.022 954.837C134.41 954.67 134.828 954.583 135.25 954.58C137.13 954.58 138.25 956.11 138.25 958.45C138.293 959.238 138.175 960.027 137.904 960.768C137.632 961.509 137.212 962.187 136.67 962.76C135.939 963.452 135.001 963.884 134 963.99C133.624 964.054 133.241 964.077 132.86 964.06L132.9 962.99ZM133.35 957.71C133.315 957.961 133.335 958.216 133.408 958.458C133.481 958.7 133.605 958.923 133.772 959.113C133.939 959.303 134.145 959.454 134.376 959.557C134.607 959.661 134.857 959.713 135.11 959.71C135.474 959.724 135.835 959.638 136.154 959.462C136.473 959.286 136.738 959.026 136.92 958.71C137.004 958.575 137.045 958.419 137.04 958.26C137.04 956.69 136.46 955.49 135.16 955.49C134.1 955.48 133.35 956.38 133.35 957.71Z" fill="black"/>
<path d="M145.22 962.44C145.826 962.802 146.515 963.002 147.22 963.02C148.81 963.02 149.31 962.02 149.29 961.24C149.29 959.96 148.12 959.41 146.92 959.41H146.23V958.47H146.92C147.82 958.47 148.97 958.01 148.97 956.92C148.97 956.18 148.5 955.54 147.36 955.54C146.702 955.558 146.062 955.766 145.52 956.14L145.2 955.24C145.914 954.775 146.748 954.528 147.6 954.53C149.41 954.53 150.23 955.61 150.23 956.72C150.22 957.216 150.049 957.695 149.742 958.085C149.435 958.475 149.01 958.754 148.53 958.88C149.088 958.975 149.595 959.263 149.961 959.695C150.327 960.127 150.529 960.674 150.53 961.24C150.53 962.71 149.38 964 147.18 964C146.341 964.01 145.515 963.792 144.79 963.37L145.22 962.44Z" fill="black"/>
<path d="M163.64 954.69V955.51L159.64 963.87H158.35L162.35 955.75H157.86V954.75L163.64 954.69Z" fill="black"/>
<path d="M170.42 963.87V963.11L171.42 962.11C173.76 959.88 174.82 958.69 174.84 957.31C174.866 957.066 174.836 956.819 174.753 956.587C174.671 956.356 174.537 956.146 174.362 955.973C174.188 955.8 173.976 955.669 173.744 955.589C173.512 955.509 173.264 955.482 173.02 955.51C172.3 955.537 171.61 955.813 171.07 956.29L170.67 955.42C171.398 954.808 172.319 954.474 173.27 954.48C173.636 954.447 174.004 954.492 174.35 954.613C174.697 954.734 175.013 954.927 175.279 955.179C175.545 955.432 175.754 955.739 175.892 956.078C176.03 956.418 176.094 956.784 176.08 957.15C176.08 958.85 174.85 960.22 172.92 962.08L172.18 962.76H176.31V963.76L170.42 963.87Z" fill="black"/>
<path d="M188.42 955.56C188.105 955.548 187.79 955.568 187.48 955.62C186.663 955.734 185.906 956.116 185.329 956.706C184.751 957.295 184.386 958.06 184.29 958.88C184.659 958.408 185.169 958.067 185.746 957.907C186.323 957.746 186.936 957.775 187.495 957.989C188.055 958.202 188.531 958.59 188.854 959.094C189.177 959.598 189.33 960.193 189.29 960.79C189.313 961.201 189.253 961.613 189.113 962.001C188.974 962.389 188.757 962.744 188.477 963.047C188.197 963.349 187.86 963.592 187.484 963.761C187.108 963.93 186.702 964.021 186.29 964.03C184.29 964.03 183.04 962.5 183.04 960.11C182.99 958.579 183.547 957.091 184.59 955.97C185.396 955.21 186.429 954.736 187.53 954.62C187.831 954.572 188.135 954.549 188.44 954.55L188.42 955.56ZM188.06 960.86C188.095 960.594 188.071 960.323 187.992 960.067C187.912 959.811 187.778 959.575 187.598 959.375C187.419 959.176 187.198 959.017 186.951 958.911C186.705 958.805 186.438 958.753 186.17 958.76C185.797 958.764 185.433 958.872 185.119 959.071C184.804 959.271 184.552 959.555 184.39 959.89C184.291 960.056 184.243 960.247 184.25 960.44C184.25 961.95 184.97 963.07 186.25 963.07C187.34 963.07 188.06 962.17 188.06 960.86Z" fill="black"/>
<path d="M198.62 955.85L197.03 956.71L196.79 955.76L198.79 954.69H199.79V963.87H198.59L198.62 955.85Z" fill="black"/>
<path d="M288.05 963.87V963.11L289.05 962.11C291.39 959.88 292.45 958.69 292.47 957.31C292.494 957.065 292.463 956.818 292.379 956.587C292.295 956.355 292.16 956.146 291.985 955.973C291.809 955.8 291.598 955.669 291.365 955.589C291.132 955.509 290.885 955.482 290.64 955.51C289.923 955.539 289.238 955.815 288.7 956.29L288.3 955.42C289.027 954.808 289.949 954.474 290.9 954.48C291.265 954.447 291.634 954.492 291.98 954.613C292.326 954.734 292.643 954.927 292.909 955.179C293.175 955.432 293.384 955.739 293.522 956.078C293.66 956.418 293.724 956.784 293.71 957.15C293.71 958.85 292.48 960.22 290.55 962.08L289.81 962.76H293.94V963.76L288.05 963.87Z" fill="black"/>
<path d="M306.8 954.69V955.51L302.8 963.87H301.51L305.51 955.75H301.02V954.75L306.8 954.69Z" fill="black"/>
<path d="M313.85 962.44C314.455 962.803 315.144 963.003 315.85 963.02C317.45 963.02 317.95 962.02 317.93 961.24C317.93 959.96 316.76 959.41 315.56 959.41H314.87V958.47H315.56C316.46 958.47 317.56 958.01 317.56 956.92C317.56 956.18 317.09 955.54 315.95 955.54C315.291 955.556 314.651 955.765 314.11 956.14L313.78 955.24C314.498 954.775 315.335 954.529 316.19 954.53C317.99 954.53 318.81 955.61 318.81 956.72C318.802 957.215 318.633 957.694 318.328 958.084C318.023 958.474 317.599 958.754 317.12 958.88C317.687 958.964 318.206 959.248 318.582 959.681C318.958 960.113 319.166 960.667 319.17 961.24C319.17 962.71 318.02 964 315.82 964C314.981 964.01 314.155 963.792 313.43 963.37L313.85 962.44Z" fill="black"/>
<path d="M331.54 955.56C331.229 955.548 330.917 955.568 330.61 955.62C329.793 955.734 329.036 956.116 328.459 956.706C327.882 957.295 327.516 958.06 327.42 958.88C327.789 958.408 328.299 958.067 328.876 957.907C329.453 957.746 330.066 957.775 330.625 957.989C331.185 958.202 331.661 958.59 331.984 959.094C332.307 959.598 332.46 960.193 332.42 960.79C332.442 961.201 332.381 961.612 332.24 961.999C332.1 962.386 331.884 962.741 331.604 963.043C331.325 963.346 330.987 963.588 330.612 963.758C330.237 963.927 329.832 964.02 329.42 964.03C327.42 964.03 326.17 962.5 326.17 960.11C326.12 958.579 326.677 957.091 327.72 955.97C328.523 955.207 329.558 954.732 330.66 954.62C330.958 954.572 331.259 954.549 331.56 954.55L331.54 955.56ZM331.19 960.86C331.225 960.594 331.202 960.323 331.122 960.067C331.042 959.811 330.908 959.575 330.728 959.375C330.549 959.176 330.328 959.017 330.082 958.911C329.835 958.805 329.568 958.753 329.3 958.76C328.928 958.764 328.564 958.872 328.249 959.071C327.935 959.271 327.682 959.555 327.52 959.89C327.421 960.056 327.373 960.247 327.38 960.44C327.38 961.95 328.1 963.07 329.38 963.07C330.47 963.07 331.19 962.17 331.19 960.86Z" fill="black"/>
<path d="M341.8 955.85L340.21 956.71L339.97 955.76L341.97 954.69H343.03V963.87H341.8V955.85Z" fill="black"/>
<path d="M357.91 959.18C357.91 962.3 356.75 964.03 354.71 964.03C352.92 964.03 351.71 962.34 351.71 959.31C351.71 956.28 353.04 954.53 354.91 954.53C356.78 954.53 357.91 956.26 357.91 959.18ZM352.91 959.32C352.91 961.71 353.64 963.07 354.77 963.07C355.9 963.07 356.65 961.58 356.65 959.24C356.65 956.9 356.07 955.49 354.79 955.49C353.71 955.49 352.92 956.82 352.92 959.32H352.91Z" fill="black"/>
<defs>
<linearGradient id="paint0_linear_102_123" x1="44.01" y1="12.68" x2="912.45" y2="2239.12" gradientUnits="userSpaceOnUse">
<stop stop-color="white"/>
<stop offset="1" stop-color="#CECECE"/>
</linearGradient>
</defs>
</svg>
